<svg xmlns="http://www.w3.org/2000/svg" viewBox="0 0 64 64" role="img" aria-label="World Model Self-Distillation icon">
  <rect width="64" height="64" rx="14" fill="#0b1114"/>
  <circle cx="32" cy="32" r="21" fill="#102429" stroke="#62d2c4" stroke-width="3"/>
  <path d="M13 32c6.5-5 13-7.5 19-7.5S44.5 27 51 32c-6.5 5-13 7.5-19 7.5S19.5 37 13 32Z" fill="none" stroke="#d7f0ec" stroke-width="2.4" stroke-linecap="round" stroke-linejoin="round"/>
  <path d="M32 11c-5.5 5.2-8.2 12.2-8.2 21S26.5 47.8 32 53c5.5-5.2 8.2-12.2 8.2-21S37.5 16.2 32 11Z" fill="none" stroke="#8ee6d8" stroke-width="2.2" stroke-linecap="round" stroke-linejoin="round" opacity=".88"/>
  <path d="M18 45c7.8 5.2 18.5 4.6 25.6-1.6" fill="none" stroke="#c06b1f" stroke-width="4" stroke-linecap="round"/>
  <path d="m43.6 43.4-1.6 8.2 7.7-3.2" fill="#c06b1f"/>
  <circle cx="24" cy="27" r="5.5" fill="#f7e0bd" stroke="#fffaf1" stroke-width="2"/>
  <circle cx="41" cy="36" r="5.5" fill="#62d2c4" stroke="#e8fffb" stroke-width="2"/>
  <path d="M27.9 29.6 37 34" stroke="#ffffff" stroke-width="2.3" stroke-linecap="round"/>
  <circle cx="32" cy="32" r="2.3" fill="#ffffff"/>
</svg>
